<svg data-v-9692f1f6="" height="22px" viewBox="0 0 179 26" version="1.1" xmlns="http://www.w3.org/2000/svg" xmlns:xlink="http://www.w3.org/1999/xlink"><title data-v-9692f1f6="">Gestion</title> <defs data-v-9692f1f6=""><rect data-v-9692f1f6="" id="path-1" x="0" y="0" width="1440" height="733"></rect></defs> <g data-v-9692f1f6="" id="Gestion" stroke="none" stroke-width="1" fill="none" fill-rule="evenodd"><g data-v-9692f1f6="" id="Homepage" transform="translate(-39.000000, -59.000000)"><g data-v-9692f1f6="" id="Header"><g data-v-9692f1f6="" id="Body-Header" transform="translate(39.000000, 57.000000)"><g data-v-9692f1f6="" id="logo_checkmyguest_gestion" transform="translate(0.000000, 2.500000)"><g data-v-9692f1f6="" id="document" transform="translate(0.000000, 0.925926)"></g> <g data-v-9692f1f6="" id="Group" transform="translate(27.083333, 0.000000)" fill="#061249" fill-rule="nonzero"><path data-v-9692f1f6="" d="M0.0208333333,12.875 C0.0128142936,11.9515376 0.164749742,11.0336596 0.469907407,10.162037 C0.749617484,9.35473858 1.18711904,8.6111433 1.75694444,7.97453704 C2.32485749,7.35178126 3.01940688,6.85770408 3.79398148,6.52546296 C4.64793877,6.16381123 5.56811384,5.98482259 6.49537037,6 C7.69487304,5.99337484 8.88401432,6.22223735 9.99537037,6.67361111 L9.34490741,9.15046296 C8.96144763,8.98921283 8.56392997,8.86368093 8.15740741,8.77546296 C7.69394046,8.6720256 7.22022717,8.62154795 6.74537037,8.625 C5.5617284,8.625 4.66126543,8.99537037 4.04398148,9.73611111 C3.42669753,10.4768519 3.11805556,11.5231481 3.11805556,12.875 C3.11805556,14.1743827 3.40972222,15.2037037 3.99305556,15.962963 C4.57638889,16.7222222 5.55941358,17.1010802 6.94212963,17.099537 C7.45432379,17.0995839 7.96527754,17.0491863 8.46759259,16.9490741 C8.91213852,16.8655831 9.34774021,16.7400182 9.76851852,16.5740741 L10.1921296,19.0740741 C9.70903615,19.2869002 9.20124572,19.4385375 8.68055556,19.525463 C7.9941383,19.6587284 7.29645579,19.7253958 6.59722222,19.724537 C5.6024216,19.7461807 4.61304427,19.5723712 3.68518519,19.212963 C2.90166033,18.9004396 2.20009296,18.4126681 1.63425926,17.787037 C1.08078651,17.1564225 0.667367946,16.4155827 0.421296296,15.6134259 C0.147855282,14.7266253 0.0127808045,13.8029658 0.0208333333,12.875 Z" id="Path"></path> <path data-v-9692f1f6="" d="M10.9444444,19.400463 L10.9444444,0.5 L13.9699074,-1.31581988e-14 L13.9699074,6.48148148 C14.347842,6.35303805 14.7346801,6.25246012 15.1273148,6.18055556 C15.5599695,6.09812105 15.9993775,6.05627268 16.4398148,6.05555556 C17.3312855,6.02759501 18.21948,6.176283 19.0532407,6.49305556 C19.7023943,6.75432699 20.2743626,7.17653201 20.7152778,7.71990741 C21.1473756,8.27503806 21.4502496,8.91953511 21.6018519,9.60648148 C21.7854083,10.4096903 21.8739782,11.2316808 21.8657407,12.0555556 L21.8657407,19.4074074 L18.8449074,19.4074074 L18.8449074,12.5324074 C18.85263,11.9330839 18.8069245,11.3342646 18.7083333,10.7430556 C18.6371621,10.3160392 18.4796294,9.90802961 18.2453704,9.54398148 C18.0404155,9.23949724 17.7483714,9.00392574 17.4074074,8.86805556 C16.9919157,8.715727 16.5511351,8.64422783 16.1087963,8.65740741 C15.6967249,8.658528 15.2857744,8.70039843 14.8819444,8.78240741 C14.5690751,8.84154886 14.259911,8.9188399 13.9560185,9.01388889 L13.9560185,19.4143519 L10.9444444,19.400463 Z" id="Path"></path> <path data-v-9692f1f6="" d="M23.1689815,12.9236111 C23.1484075,11.892528 23.3227596,10.8668355 23.6828704,9.90046296 C23.9846587,9.09395329 24.4478054,8.35748706 25.0439815,7.73611111 C25.5966104,7.17170586 26.2613507,6.72933421 26.9953704,6.4375 C27.7104187,6.14887655 28.4742689,6.00035011 29.2453704,6 C31.0432099,6 32.4467593,6.55787037 33.4560185,7.67361111 C34.4652778,8.78935185 34.9699074,10.4560185 34.9699074,12.6736111 C34.9699074,12.8402778 34.9652778,13.0277778 34.9560185,13.2361111 C34.9560185,13.4467593 34.9351852,13.6319444 34.9189815,13.7986111 L26.2939815,13.7986111 C26.3773148,14.849537 26.7484568,15.662037 27.4074074,16.2361111 C28.066358,16.8101852 29.0200617,17.0979938 30.2685185,17.099537 C30.9449825,17.1049491 31.6200952,17.0382138 32.2824074,16.900463 C32.77345,16.8021762 33.2545818,16.6596186 33.7199074,16.474537 L34.1203704,18.9490741 C33.8956803,19.0539641 33.6635712,19.1421656 33.4259259,19.212963 C33.1342593,19.3040123 32.8009259,19.3873457 32.4259259,19.462963 C32.0509259,19.5385802 31.6466049,19.6010802 31.212963,19.650463 C30.7725562,19.6998175 30.3297376,19.7245473 29.8865741,19.724537 C28.8600598,19.7472396 27.8386611,19.5736018 26.8773148,19.212963 C26.0775958,18.9045376 25.3593175,18.4167102 24.7777778,17.787037 C24.2266644,17.1642953 23.8147216,16.4311635 23.5694444,15.6365741 C23.2949439,14.7587506 23.1598144,13.843307 23.1689815,12.9236111 L23.1689815,12.9236111 Z M31.9444444,11.5740741 C31.946879,11.1715729 31.8875468,10.7710807 31.7685185,10.3865741 C31.6627822,10.0316364 31.4890327,9.70064745 31.2569444,9.41203704 C31.0327619,9.1379315 30.7515486,8.91596258 30.4328704,8.76157407 C30.0693715,8.59839787 29.6737604,8.51927565 29.275463,8.53009259 C28.852221,8.52063526 28.432706,8.61104114 28.0509259,8.79398148 C27.7115707,8.96326971 27.4099913,9.19949383 27.1643519,9.48842593 C26.9191771,9.77638216 26.7285601,10.1066282 26.6018519,10.462963 C26.4693927,10.8268298 26.3770253,11.2040614 26.3263889,11.587963 L31.9444444,11.5740741 Z" id="Shape"></path> <path data-v-9692f1f6="" d="M35.837963,12.875 C35.835563,11.9508211 35.9921678,11.0331173 36.3009259,10.162037 C36.580636,9.35473858 37.0181376,8.6111433 37.587963,7.97453704 C38.156308,7.35124247 38.8517333,6.85710371 39.6273148,6.52546296 C40.4782493,6.16455449 41.3952496,5.98556991 42.3194444,6 C43.5189471,5.99337484 44.7080884,6.22223735 45.8194444,6.67361111 L45.1689815,9.15046296 C44.7855217,8.98921283 44.388004,8.86368093 43.9814815,8.77546296 C43.5180145,8.6720256 43.0443012,8.62154795 42.5694444,8.625 C41.3858025,8.625 40.4861111,8.99537037 39.8703704,9.73611111 C39.2546296,10.4768519 38.9459877,11.5231481 38.9444444,12.875 C38.9444444,14.1743827 39.2361111,15.2037037 39.8194444,15.962963 C40.4027778,16.7222222 41.3858025,17.1010802 42.7685185,17.099537 C43.2807127,17.0995839 43.7916664,17.0491863 44.2939815,16.9490741 C44.7385274,16.8655831 45.1741291,16.7400182 45.5949074,16.5740741 L46.0231481,19.0856481 C45.5401809,19.2988173 45.0323467,19.4504676 44.5115741,19.537037 C43.8251568,19.6703024 43.1274743,19.7369699 42.4282407,19.7361111 C41.4334401,19.7577548 40.4440628,19.5839452 39.5162037,19.224537 C38.7331846,18.9110742 38.031816,18.423441 37.4652778,17.7986111 C36.9114204,17.1677631 36.498667,16.4259118 36.2546296,15.6226852 C35.9734327,14.7340927 35.8328472,13.8070098 35.837963,12.875 L35.837963,12.875 Z" id="Path"></path> <path data-v-9692f1f6="" d="M49.7939815,11.4236111 C50.1759259,11.025463 50.5856481,10.5949074 51.0185185,10.1365741 C51.4513889,9.67824074 51.8773148,9.21064815 52.2939815,8.76157407 C52.7106481,8.3125 53.1064815,7.86111111 53.4814815,7.4375 C53.8564815,7.01388889 54.1759259,6.6412037 54.4444444,6.32407407 L58.0185185,6.32407407 C57.1867284,7.25 56.3094136,8.21682099 55.3865741,9.22453704 C54.4637346,10.2322531 53.5378086,11.2075617 52.6087963,12.150463 C53.1634376,12.6213694 53.6883634,13.126195 54.1805556,13.662037 C54.7299383,14.2546296 55.2623457,14.8834877 55.7777778,15.5486111 C56.2932099,16.2137346 56.775463,16.8804012 57.224537,17.5486111 C57.6307156,18.1459508 58.0054533,18.7640749 58.3472222,19.400463 L54.8449074,19.400463 C54.5439815,18.8842593 54.1990741,18.3402778 53.8055556,17.7800926 C53.412037,17.2199074 52.9930556,16.662037 52.5439815,16.1296296 C52.0949074,15.5972222 51.6342593,15.0925926 51.1689815,14.6157407 C50.7423616,14.1775391 50.2826728,13.7727963 49.7939815,13.4050926 L49.7939815,19.4050926 L46.7685185,19.4050926 L46.7685185,0.5 L49.7939815,-1.31581988e-14 L49.7939815,11.4236111 Z" id="Path"></path> <path data-v-9692f1f6="" d="M66.3935185,12.525463 C66.3935185,11.158179 66.2229938,10.1705247 65.8819444,9.5625 C65.5408951,8.95447531 64.9035494,8.65046296 63.9699074,8.65046296 C63.601429,8.65189823 63.2334104,8.67663898 62.8680556,8.72453704 C62.4699074,8.77546296 62.1736111,8.81712963 61.9699074,8.84953704 L61.9699074,19.400463 L58.9444444,19.400463 L58.9444444,6.75 C59.6967595,6.54683506 60.4604407,6.38837895 61.2314815,6.27546296 C62.2199418,6.11945682 63.2192137,6.04205388 64.2199074,6.04398148 C64.9724514,6.01976063 65.722717,6.13917464 66.4305556,6.39583333 C66.9672106,6.60447503 67.4561646,6.91942127 67.8680556,7.32175926 C68.0892163,7.16429287 68.3212816,7.02273303 68.5625,6.89814815 C68.8683815,6.73717801 69.1855782,6.59869456 69.5115741,6.4837963 C69.8752645,6.35470391 70.2472515,6.25030009 70.625,6.1712963 C71.0153482,6.08806142 71.4133763,6.04616372 71.8125,6.0462963 C72.6709048,6.01735361 73.5260153,6.16630834 74.3240741,6.4837963 C74.9426873,6.74462432 75.4787721,7.16869145 75.875,7.71064815 C76.2679408,8.27971744 76.5325326,8.92737517 76.650463,9.6087963 C76.7966739,10.4129313 76.8671984,11.2289997 76.8611111,12.0462963 L76.8611111,19.3981481 L73.8425926,19.3981481 L73.8425926,12.5231481 C73.8425926,11.1558642 73.6766975,10.1682099 73.3449074,9.56018519 C73.0131173,8.95216049 72.371142,8.64814815 71.4189815,8.64814815 C70.9506191,8.64406863 70.4851913,8.72242348 70.0439815,8.87962963 C69.7017193,8.99424633 69.3745151,9.14968772 69.0694444,9.34259259 C69.2047345,9.773779 69.2970055,10.2172999 69.3449074,10.6666667 C69.3954519,11.1650545 69.4201763,11.6657238 69.4189815,12.1666667 L69.4189815,19.3935185 L66.3935185,19.3935185 L66.3935185,12.525463 Z" id="Path"></path> <path data-v-9692f1f6="" d="M89.2430556,6.32407407 C88.0195334,10.9350069 86.4518637,15.447667 84.5532407,19.8240741 C84.2624081,20.4923589 83.9187253,21.1363771 83.525463,21.75 C83.2046304,22.2497498 82.8078977,22.6964646 82.349537,23.0740741 C81.9205891,23.4215296 81.4274074,23.6810989 80.8981481,23.837963 C80.2950315,24.0028879 79.6714524,24.0808353 79.0462963,24.0694444 C78.5792222,24.0702655 78.1134695,24.0198089 77.6574074,23.9189815 C77.2996062,23.851449 76.9508314,23.7426997 76.6180556,23.5949074 L77.1689815,21.1689815 C77.7360082,21.3962859 78.3405212,21.5156183 78.9513889,21.5208333 C79.7384259,21.5208333 80.3557099,21.3333333 80.8032407,20.9583333 C81.315979,20.4742078 81.7117812,19.8797129 81.9606481,19.2199074 C81.0069444,17.3865741 80.0902778,15.3865741 79.2106481,13.2199074 C78.3031313,10.9642254 77.5195557,8.66063681 76.8634259,6.31944444 L80.087963,6.31944444 C80.257716,7.02006173 80.462963,7.77854938 80.7037037,8.59490741 C80.9444444,9.41126543 81.2083333,10.2407407 81.4953704,11.0833333 C81.7777778,11.9228395 82.0787037,12.7600309 82.3981481,13.5949074 C82.7175926,14.429784 83.0354938,15.2013889 83.3518519,15.9097222 C83.882716,14.4282407 84.3804012,12.849537 84.8449074,11.1736111 C85.3094136,9.49768519 85.7322531,7.87731481 86.1134259,6.3125 L89.2430556,6.32407407 Z" id="Path"></path> <path data-v-9692f1f6="" d="M100.743056,18.0740741 C100.743056,20.1574074 100.213735,21.6828704 99.1550926,22.650463 C98.0964506,23.6180556 96.4760802,24.1010802 94.2939815,24.0995488 C93.5103845,24.1005671 92.7281606,24.0339619 91.9560185,23.900463 C91.2555403,23.7808989 90.5658157,23.6051778 89.8935185,23.375 L90.4444444,20.7986111 C91.0126286,21.0321139 91.6027628,21.2081461 92.2060185,21.3240741 C92.9096469,21.4627341 93.6254475,21.530204 94.3425926,21.525463 C95.5601852,21.525463 96.4274691,21.275463 96.9444444,20.775463 C97.4614198,20.275463 97.7191358,19.533179 97.7175926,18.5486111 L97.7175926,18.0486111 C97.3352139,18.235439 96.938024,18.3902888 96.5300926,18.5115741 C95.9821677,18.671914 95.4134545,18.7499268 94.8425926,18.7430556 C94.0620568,18.7519626 93.2866256,18.6161836 92.5555556,18.3425926 C91.8834199,18.089077 91.2767069,17.6880294 90.7800926,17.1689815 C90.2618043,16.6121228 89.8673451,15.951798 89.6226852,15.2314815 C89.3324806,14.365793 89.1923464,13.4568778 89.2083333,12.5439815 C89.1986351,11.6500597 89.3467387,10.7614378 89.6458333,9.91898148 C89.9175421,9.15108563 90.3527179,8.45132929 90.9212963,7.86805556 C91.4992801,7.28791381 92.1935039,6.83666832 92.9583333,6.54398148 C93.8289033,6.21384942 94.7542441,6.05203261 95.6851852,6.06712963 C96.6229064,6.06542309 97.559099,6.14285837 98.4837963,6.29861111 C99.3680556,6.44675926 100.118056,6.60648148 100.733796,6.77314815 L100.743056,18.0740741 Z M92.3194444,12.5185185 C92.3194444,13.8009259 92.5979938,14.7384259 93.1550926,15.3310185 C93.7164298,15.9226517 94.5043644,16.2454099 95.3194444,16.2175926 C95.7805992,16.2203691 96.2395123,16.1532491 96.6805556,16.0185185 C97.0480583,15.912114 97.3975973,15.7513885 97.7175926,15.5416667 L97.7175926,8.77546296 C97.5023148,8.72453704 97.2337963,8.67824074 96.9189815,8.63657407 C96.5202401,8.59039265 96.1189736,8.56951752 95.7175926,8.57407407 C94.6188272,8.57407407 93.7777778,8.9367284 93.1944444,9.66203704 C92.6087963,10.3865741 92.3194444,11.3402778 92.3194444,12.525463 L92.3194444,12.5185185 Z" id="Shape"></path> <path data-v-9692f1f6="" d="M113.717593,19 C113.134259,19.150463 112.377315,19.3032407 111.444444,19.462963 C110.42717,19.6252576 109.398162,19.7026848 108.368056,19.6944444 C107.468145,19.7206197 106.571985,19.5679813 105.731481,19.2453704 C105.068485,18.9780026 104.483402,18.5481454 104.030093,17.9953704 C103.591451,17.4314393 103.280291,16.7791095 103.118056,16.0833333 C102.928371,15.284898 102.835879,14.4664638 102.842593,13.6458333 L102.842593,6.32407407 L105.868056,6.32407407 L105.868056,13.1736111 C105.868056,14.5733025 106.072531,15.5763889 106.481481,16.1828704 C106.890432,16.7893519 107.602623,17.0895062 108.618056,17.0833333 C108.986111,17.0833333 109.372685,17.0671296 109.775463,17.0347222 C110.086676,17.0150375 110.396097,16.9732656 110.701389,16.9097222 L110.701389,6.32407407 L113.724537,6.32407407 L113.717593,19 Z" id="Path"></path> <path data-v-9692f1f6="" d="M115.236111,12.9236111 C115.215537,11.892528 115.389889,10.8668355 115.75,9.90046296 C116.051788,9.09395329 116.514935,8.35748706 117.111111,7.73611111 C117.66374,7.17170586 118.32848,6.72933421 119.0625,6.4375 C119.777548,6.14887655 120.541399,6.00035011 121.3125,6 C123.11034,6 124.513889,6.55787037 125.523148,7.67361111 C126.532407,8.78935185 127.037037,10.4560185 127.037037,12.6736111 C127.037037,12.8402778 127.032407,13.0277778 127.023148,13.2361111 C127.023148,13.4467593 127.002315,13.6319444 126.986111,13.7986111 L118.368056,13.7986111 C118.451389,14.849537 118.822531,15.662037 119.481481,16.2361111 C120.140432,16.8101852 121.094136,17.0979938 122.342593,17.099537 C123.019057,17.1049491 123.694169,17.0382138 124.356481,16.900463 C124.847524,16.8021762 125.328656,16.6596186 125.793981,16.474537 L126.194444,18.9490741 C125.969925,19.0543674 125.737785,19.1425805 125.5,19.212963 C125.208333,19.3040123 124.875,19.3873457 124.5,19.462963 C124.125,19.5385802 123.720679,19.6010802 123.287037,19.650463 C122.84663,19.6998175 122.403812,19.7245473 121.960648,19.724537 C120.934134,19.7472396 119.912735,19.5736018 118.951389,19.212963 C118.15167,18.9045376 117.433392,18.4167102 116.851852,17.787037 C116.294923,17.1657898 115.877395,16.4325498 115.627315,15.6365741 C115.355951,14.758251 115.223947,13.8428183 115.236111,12.9236111 L115.236111,12.9236111 Z M124.011574,11.5740741 C124.014009,11.1715729 123.954676,10.7710807 123.835648,10.3865741 C123.729912,10.0316364 123.556162,9.70064745 123.324074,9.41203704 C123.099892,9.1379315 122.818678,8.91596258 122.5,8.76157407 C122.136501,8.59839787 121.74089,8.51927565 121.342593,8.53009259 C120.919351,8.52063526 120.499836,8.61104114 120.118056,8.79398148 C119.7787,8.96326971 119.477121,9.19949383 119.231481,9.48842593 C118.986307,9.77638216 118.79569,10.1066282 118.668981,10.462963 C118.536522,10.8268298 118.444155,11.2040614 118.393519,11.587963 L124.011574,11.5740741 Z" id="Shape"></path> <path data-v-9692f1f6="" d="M131.918981,17.2337963 C132.716821,17.2337963 133.300154,17.1381173 133.668981,16.9467593 C134.033792,16.7573914 134.249865,16.3680958 134.217593,15.9583333 C134.217587,15.5240485 133.997001,15.1194969 133.631944,14.8842593 C133.027145,14.4962171 132.376282,14.1851715 131.694444,13.9583333 C131.178669,13.7736898 130.673296,13.5611858 130.180556,13.3217593 C129.75044,13.1152228 129.350846,12.8503847 128.993056,12.5347222 C128.658089,12.2305818 128.390064,11.8600766 128.206019,11.4467593 C128.001079,10.9520381 127.903253,10.4195181 127.918981,9.88425926 C127.873341,8.77939319 128.367064,7.72116755 129.243056,7.0462963 C130.127315,6.35339506 131.32716,6.00771605 132.842593,6.00914213 C133.581692,6.00584239 134.319242,6.07719319 135.043981,6.22222222 C135.578507,6.31880016 136.104766,6.45655626 136.618056,6.63425926 L136.069444,9.07407407 C135.65751,8.89874977 135.230634,8.76084805 134.793981,8.66203704 C134.203092,8.5291949 133.598637,8.46626319 132.993056,8.47453704 C132.474918,8.45319668 131.959565,8.56056192 131.493056,8.78703704 C131.127643,8.96575387 130.902411,9.3435626 130.918981,9.75 C130.915282,9.94703845 130.953142,10.1426454 131.030093,10.3240741 C131.1194,10.5082076 131.253027,10.6672872 131.418981,10.787037 C131.642036,10.9540169 131.881732,11.0975244 132.134259,11.2152778 C132.493056,11.379802 132.86005,11.525827 133.233796,11.6527778 C133.857905,11.8780574 134.467815,12.140883 135.060185,12.4398148 C135.515055,12.665698 135.932066,12.9608856 136.296296,13.3148148 C136.614302,13.6270045 136.857976,14.0067562 137.009259,14.4259259 C137.172124,14.9088892 137.250434,15.4163333 137.240741,15.9259259 C137.240741,17.1759259 136.777778,18.1219136 135.851852,18.7638889 C134.925926,19.4058642 133.609568,19.7260802 131.902778,19.724537 C130.968348,19.7490471 130.034673,19.6525674 129.125,19.4375 C128.625712,19.309135 128.133519,19.1546006 127.650463,18.974537 L128.175926,16.4490741 C128.704563,16.6578483 129.245743,16.8333454 129.796296,16.974537 C130.489787,17.1517604 131.203222,17.2388974 131.918981,17.2337963 Z" id="Path"></path> <path data-v-9692f1f6="" d="M138.31713,2.88194444 L141.342593,2.38194444 L141.342593,6.33101852 L145.993056,6.33101852 L145.993056,8.85648148 L141.342593,8.85648148 L141.342593,14.1805556 C141.342593,15.2314815 141.509259,15.9814815 141.842593,16.4305556 C142.175926,16.8796296 142.743056,17.1049383 143.543981,17.1064815 C144.036566,17.113911 144.527896,17.0547334 145.00463,16.9305556 C145.348233,16.8410422 145.686698,16.7328569 146.018519,16.6064815 L146.518519,19.0069444 C146.070305,19.1898345 145.611072,19.3444584 145.143519,19.4699074 C144.49023,19.6363017 143.817544,19.7141588 143.143519,19.7013889 C142.347542,19.7246451 141.55433,19.5974171 140.805556,19.3263889 C140.219771,19.10572 139.705195,18.7295911 139.31713,18.2384259 C138.934268,17.728291 138.670128,17.1391148 138.543981,16.5138889 C138.382621,15.7530367 138.304999,14.9768124 138.3125,14.1990741 L138.31713,2.88194444 Z" id="Path"></path></g> <polygon data-v-9692f1f6="" id="Path" fill="#061249" fill-rule="nonzero" points="8.81944444 6.47916667 -1.42108547e-14 2.3587963 -1.42108547e-14 6.02314815 8.81944444 10.1435185 21.1342593 4.69907407 21.1342593 1.03009259" class="check"></polygon> <polygon data-v-9692f1f6="" id="Path" fill="#061249" fill-rule="nonzero" points="8.81944444 13.8055556 -1.31581988e-14 9.68518519 -1.31581988e-14 13.349537 8.81944444 17.4699074 21.1342593 12.025463 21.1342593 8.36111111" class="check"></polygon> <polygon data-v-9692f1f6="" id="Path" fill="#061249" fill-rule="nonzero" points="8.81944444 21.1342593 -1.31581988e-14 17.0138889 -1.31581988e-14 20.6782407 8.81944444 24.7986111 21.1342593 19.3541667 21.1342593 15.6898148" class="check"></polygon> <polygon data-v-9692f1f6="" id="Path" fill="#061249" fill-rule="nonzero" points="8.81944444 21.1342593 1.75148784e-12 17.0138889 1.75148784e-12 20.6782407 8.81944444 24.7986111 21.1342593 19.3541667 21.1342593 15.6898148" class="check"></polygon> <path data-v-9692f1f6="" d="M178.069444,7.51157407 C178.074453,7.77882184 178.024827,8.04427688 177.923611,8.29166667 C177.833128,8.50817292 177.700997,8.70479658 177.534722,8.87037037 C177.371697,9.02741403 177.178859,9.15020112 176.967593,9.23148148 C176.535567,9.39808248 176.057026,9.39808248 175.625,9.23148148 C175.413734,9.15020112 175.220895,9.02741403 175.05787,8.87037037 C174.891595,8.70479658 174.759464,8.50817292 174.668981,8.29166667 C174.474425,7.79139842 174.474425,7.23637936 174.668981,6.73611111 C174.758322,6.51831147 174.890577,6.32071666 175.05787,6.15509259 C175.220895,5.99804893 175.413734,5.87526185 175.625,5.79398148 C176.057026,5.62738048 176.535567,5.62738048 176.967593,5.79398148 C177.178859,5.87526185 177.371697,5.99804893 177.534722,6.15509259 C177.702016,6.32071666 177.83427,6.51831147 177.923611,6.73611111 C178.024024,6.98211803 178.07363,7.24589645 178.069444,7.51157407 Z M177.548611,7.51157407 C177.551158,7.32254041 177.520604,7.13451935 177.458333,6.95601852 C177.400777,6.79836903 177.312674,6.65362833 177.199074,6.53009259 C177.089345,6.40987622 176.954093,6.31575305 176.803241,6.25462963 C176.477706,6.12500842 176.114886,6.12500842 175.789352,6.25462963 C175.63811,6.31626867 175.502208,6.41029385 175.391204,6.53009259 C175.279097,6.65432318 175.191871,6.79891313 175.134259,6.95601852 C175.013895,7.31660984 175.013895,7.70653831 175.134259,8.06712963 C175.191341,8.22518152 175.278608,8.37062714 175.391204,8.49537037 C175.503016,8.61423296 175.6387,8.70810747 175.789352,8.77083333 C176.115453,8.8974641 176.47714,8.8974641 176.803241,8.77083333 C176.953652,8.70890007 177.088739,8.61489259 177.199074,8.49537037 C177.313182,8.37133714 177.401331,8.22573464 177.458333,8.06712963 C177.520604,7.8886288 177.551158,7.70060774 177.548611,7.51157407 Z M176.606481,8.37731481 C176.548611,8.25 176.5,8.14583333 176.458333,8.03935185 C176.421755,7.94777377 176.375997,7.86013532 176.321759,7.77777778 L176.115741,7.77777778 L176.115741,8.37731481 L175.622685,8.37731481 L175.622685,6.63657407 C175.728639,6.61065251 175.836098,6.59132531 175.944444,6.5787037 C176.031878,6.56648261 176.12005,6.56029515 176.208333,6.56018519 C176.75463,6.56018519 177.027778,6.7654321 177.027778,7.17592593 C177.036439,7.37135671 176.928203,7.55326514 176.752315,7.63888889 C176.789352,7.69675926 176.821759,7.75231481 176.851852,7.80555556 C176.881944,7.8587963 176.909722,7.91203704 176.9375,7.96759259 C176.965278,8.02314815 176.99537,8.08564815 177.025463,8.15046296 C177.055556,8.21527778 177.085648,8.29398148 177.125,8.38194444 L176.606481,8.37731481 Z M176.118056,7.37962963 L176.210648,7.37962963 C176.29018,7.38318034 176.369442,7.36812043 176.44213,7.33564815 C176.500003,7.30239781 176.53202,7.23744914 176.523148,7.1712963 C176.528244,7.11430981 176.501552,7.05914611 176.453704,7.02777778 C176.387532,6.99836687 176.315383,6.98488856 176.243056,6.98842593 L176.168981,6.98842593 L176.106481,6.98842593 L176.118056,7.37962963 Z" id="Shape" fill="#1D1737" fill-rule="nonzero"></path></g></g></g></g></g></svg>